<svg width="512" height="512" viewBox="0 0 512 512" fill="none" xmlns="http://www.w3.org/2000/svg">
  <rect width="512" height="512" fill="#F4F1EA"/>
  <circle cx="256" cy="256" r="230" stroke="#2C2925" stroke-width="12"/>
  <circle cx="256" cy="256" r="210" stroke="#2C2925" stroke-width="1" stroke-dasharray="10 15"/>
  <path d="M210 180H280C315 180 340 205 340 240C340 275 315 300 280 300H240V340H210V180ZM240 270H280C295 270 310 255 310 240C310 225 295 210 280 210H240V270Z" fill="#2C2925"/>
  <path d="M280 320C280 350 250 380 210 380H190V350H210C230 350 250 335 250 320H280Z" fill="#9E3E36"/>
  <text x="256" y="440" font-family="serif" font-size="24" fill="#2C2925" text-anchor="middle" letter-spacing="8">CLASSICIST'S SANCTUARY</text>
</svg>