<svg width="512" height="512" viewBox="0 0 512 512" fill="none" xmlns="http://www.w3.org/2000/svg">
  <rect width="512" height="512" fill="#F4F1EA"/>
  <path d="M380 80C340 80 280 120 256 160C232 120 172 80 132 80C90 80 80 110 80 130C80 200 200 400 256 460C312 400 432 200 432 130C432 110 422 80 380 80ZM256 400C220 360 130 200 130 130C130 125 135 110 160 110C185 110 230 140 256 180C282 140 327 110 352 110C377 110 382 125 382 130C382 200 292 360 256 400Z" fill="#2C2925"/>
  <path d="M256 180L256 460" stroke="#2C2925" stroke-width="4"/>
  <circle cx="256" cy="460" r="12" fill="#9E3E36"/>
</svg>