<svg width="512" height="512" viewBox="0 0 512 512" fill="none" xmlns="http://www.w3.org/2000/svg">
  <rect width="512" height="512" fill="#F4F1EA"/>
  <!-- Arena Circle -->
  <circle cx="256" cy="256" r="220" stroke="#2C2925" stroke-width="4"/>
  
  <!-- Gladius Sword 1 (Bottom Left to Top Right) -->
  <!-- Blade -->
  <path d="M150 362L362 150L380 168L168 380Z" fill="#2C2925"/>
  <!-- Hilt -->
  <path d="M120 392L150 362L168 380L138 410C130 418 112 400 120 392Z" fill="#9E3E36"/>
  <!-- Guard -->
  <path d="M140 350L180 390" stroke="#9E3E36" stroke-width="12" stroke-linecap="round"/>

  <!-- Gladius Sword 2 (Bottom Right to Top Left) -->
  <!-- Blade -->
  <path d="M362 362L150 150L132 168L344 380Z" fill="#2C2925"/>
  <!-- Hilt -->
  <path d="M392 392L362 362L344 380L374 410C382 418 400 400 392 392Z" fill="#9E3E36"/>
  <!-- Guard -->
  <path d="M372 350L332 390" stroke="#9E3E36" stroke-width="12" stroke-linecap="round"/>

  <!-- Solid Circle Background for P -->
  <circle cx="256" cy="256" r="70" fill="#F4F1EA" stroke="#2C2925" stroke-width="4"/>

  <!-- Central P -->
  <path d="M230 200H270C295 200 310 210 310 230C310 250 295 260 270 260H245V300H230V200ZM245 245H270C280 245 290 240 290 230C290 220 280 215 270 215H245V245Z" fill="#2C2925"/>
</svg>