<svg width="512" height="512" viewBox="0 0 512 512" fill="none" xmlns="http://www.w3.org/2000/svg">
  <rect width="512" height="512" fill="#F4F1EA"/>
  <!-- Laurel Wreath -->
  <path d="M150 350C100 280 100 180 150 110L130 90C70 180 70 280 130 370L150 350Z" fill="#2C2925" opacity="0.3"/>
  <path d="M362 350C412 280 412 180 362 110L382 90C442 180 442 280 382 370L362 350Z" fill="#2C2925" opacity="0.3"/>
  <!-- Circular Arena Border -->
  <circle cx="256" cy="256" r="230" stroke="#2C2925" stroke-width="12"/>
  <circle cx="256" cy="256" r="210" stroke="#2C2925" stroke-width="2" stroke-dasharray="10 15"/>
  <!-- Bold Serif "P" -->
  <path d="M210 180H280C315 180 340 205 340 240C340 275 315 300 280 300H240V340H210V180ZM240 270H280C295 270 310 255 310 240C310 225 295 210 280 210H240V270Z" fill="#9E3E36"/>
</svg>