<svg width="512" height="512" viewBox="0 0 512 512" fill="none" xmlns="http://www.w3.org/2000/svg">
  <rect width="512" height="512" fill="#F4F1EA"/>
  <!-- Circular Frame -->
  <circle cx="256" cy="256" r="230" stroke="#2C2925" stroke-width="4"/>
  <circle cx="256" cy="256" r="220" stroke="#2C2925" stroke-width="1"/>
  
  <!-- Arch -->
  <path d="M140 400V250C140 180 190 130 256 130C322 130 372 180 372 250V400" stroke="#2C2925" stroke-width="24" stroke-linecap="square"/>
  <!-- Pillars detailing -->
  <rect x="120" y="380" width="64" height="20" fill="#2C2925"/>
  <rect x="328" y="380" width="64" height="20" fill="#2C2925"/>
  <rect x="120" y="240" width="64" height="12" fill="#2C2925"/>
  <rect x="328" y="240" width="64" height="12" fill="#2C2925"/>

  <!-- P -->
  <path d="M220 180H280C315 180 335 200 335 230C335 260 315 280 280 280H245V340H220V180ZM245 255H280C295 255 305 245 305 230C305 215 295 205 280 205H245V255Z" fill="#9E3E36"/>
</svg>